# xmcd
#
# Track frame offsets:
#	150
#	19710
#	36944
#	54219
#	66487
#
# Disc length: 1561 seconds
#
# Revision: 1
# Processed by: cddbd v1.5.2PL0 Copyright (c) Steve Scherf et al.
# Submitted via: audiograbber 1.83.01
#
DISCID=3c061705
DTITLE=Nail - AmongstTheir Shrines
DYEAR=2002
DGENRE=Stoner
TTITLE0=Manmade God
TTITLE1=Spine
TTITLE2=Need
TTITLE3=Ygltd02
TTITLE4=Always Nothing
EXTD=
EXTT0=
EXTT1=
EXTT2=
EXTT3=
EXTT4=
PLAYORDER=
